<?xml version="1.0" encoding="iso-8859-1"?>
<!-- Generator: Adobe Illustrator 17.1.0, SVG Export Plug-In . SVG Version: 6.00 Build 0)  -->
<!DOCTYPE svg PUBLIC "-//W3C//DTD SVG 1.1//EN" "http://www.w3.org/Graphics/SVG/1.1/DTD/svg11.dtd">
<svg version="1.1" id="Capa_1" xmlns="http://www.w3.org/2000/svg" xmlns:xlink="http://www.w3.org/1999/xlink" x="0px" y="0px"
	 viewBox="0 0 512 512" style="enable-background:new 0 0 512 512;" xml:space="preserve">
<g>
	<g>
		<path d="M440,81.653H168c-4.418,0-8-3.582-8-8s3.582-8,8-8h272c4.418,0,8,3.582,8,8S444.418,81.653,440,81.653z"/>
	</g>
	<g>
		<path d="M440,177.653h-16c-4.418,0-8-3.582-8-8s3.582-8,8-8h16c4.418,0,8,3.582,8,8S444.418,177.653,440,177.653z"/>
	</g>
	<g>
		<path d="M440,225.655c-2.11,0-4.17-0.86-5.66-2.35c-1.49-1.49-2.34-3.55-2.34-5.65c0-2.11,0.85-4.17,2.34-5.66
			c1.49-1.49,3.56-2.34,5.66-2.34s4.17,0.85,5.66,2.34c1.49,1.49,2.34,3.55,2.34,5.66c0,2.1-0.85,4.16-2.34,5.65
			C444.17,224.795,442.11,225.655,440,225.655z"/>
	</g>
	<g>
		<path d="M440,129.653H296c-4.418,0-8-3.582-8-8s3.582-8,8-8h144c4.418,0,8,3.582,8,8S444.418,129.653,440,129.653z"/>
	</g>
	<g>
		<path d="M264,129.653h-96c-4.418,0-8-3.582-8-8s3.582-8,8-8h96c4.418,0,8,3.582,8,8S268.418,129.653,264,129.653z"/>
	</g>
	<g>
		<path d="M455.983,350.347c-4.155,0-8.229-1.626-11.297-4.694l-10.343-10.343c-3.125-3.124-3.125-8.189,0-11.314
			c3.124-3.124,8.189-3.124,11.313,0l10.338,10.338L456,280.926c0-3.901,2.814-7.233,6.66-7.887
			c19.007-3.23,33.34-20.162,33.34-39.386v-176c0-22.056-17.944-40-40-40H152c-22.056,0-40,17.944-40,40v80c0,4.418-3.582,8-8,8
			s-8-3.582-8-8v-80c0-30.878,25.122-56,56-56h304c30.878,0,56,25.122,56,56v176c0,25.064-16.461,46.632-40,53.614v47.072
			c0,6.495-3.877,12.297-9.877,14.782C460.132,349.946,458.047,350.347,455.983,350.347z"/>
	</g>
	<g>
		<path d="M344,241.653H72c-4.418,0-8-3.582-8-8s3.582-8,8-8h272c4.418,0,8,3.582,8,8S348.418,241.653,344,241.653z"/>
	</g>
	<g>
		<path d="M344,337.653H240c-4.418,0-8-3.582-8-8s3.582-8,8-8h104c4.418,0,8,3.582,8,8S348.418,337.653,344,337.653z"/>
	</g>
	<g>
		<path d="M208,337.653H72c-4.418,0-8-3.582-8-8s3.582-8,8-8h136c4.418,0,8,3.582,8,8S212.418,337.653,208,337.653z"/>
	</g>
	<g>
		<path d="M344,385.653H72c-4.418,0-8-3.582-8-8s3.582-8,8-8h272c4.418,0,8,3.582,8,8S348.418,385.653,344,385.653z"/>
	</g>
	<g>
		<path d="M120,289.653H72c-4.418,0-8-3.582-8-8s3.582-8,8-8h48c4.418,0,8,3.582,8,8S124.418,289.653,120,289.653z"/>
	</g>
	<g>
		<path d="M344,289.653H152c-4.418,0-8-3.582-8-8s3.582-8,8-8h192c4.418,0,8,3.582,8,8S348.418,289.653,344,289.653z"/>
	</g>
	<g>
		<path d="M56.017,510.347c-2.064,0-4.148-0.401-6.139-1.226c-6-2.485-9.877-8.288-9.877-14.782v-47.072
			c-23.539-6.982-40-28.55-40-53.614v-176c0-30.878,25.122-56,56-56h304c30.878,0,56,25.122,56,56v176c0,30.878-25.122,56-56,56
			H123.313l-56,56C64.246,508.721,60.171,510.347,56.017,510.347z M56,177.653c-22.056,0-40,17.944-40,40v176
			c0,19.224,14.333,36.156,33.34,39.386c3.846,0.654,6.66,3.986,6.66,7.887v53.406l58.343-58.336c1.5-1.5,3.535-2.343,5.657-2.343
			h240c22.056,0,40-17.944,40-40v-176c0-22.056-17.944-40-40-40H56z"/>
	</g>
</g>
<g>
</g>
<g>
</g>
<g>
</g>
<g>
</g>
<g>
</g>
<g>
</g>
<g>
</g>
<g>
</g>
<g>
</g>
<g>
</g>
<g>
</g>
<g>
</g>
<g>
</g>
<g>
</g>
<g>
</g>
</svg>
