<?xml version="1.0" encoding="iso-8859-1"?>
<!-- Generator: Adobe Illustrator 19.1.0, SVG Export Plug-In . SVG Version: 6.00 Build 0)  -->
<svg version="1.1" id="Capa_1" xmlns="http://www.w3.org/2000/svg" xmlns:xlink="http://www.w3.org/1999/xlink" x="0px" y="0px"
	 viewBox="0 0 512 512" style="enable-background:new 0 0 512 512;" xml:space="preserve">
<g>
	<g>
		<g>
			<path style="fill:#B9BBC1;" d="M264,176h208c22.055,0,40,17.945,40,40v112c0,22.055-17.945,40-40,40H360v32
				c0,3.234-1.945,6.152-4.938,7.391C354.07,407.801,353.031,408,352,408c-2.078,0-4.125-0.812-5.656-2.344L308.687,368H264
				c-22.055,0-40-17.945-40-40V216C224,193.945,241.945,176,264,176z"/>
		</g>
		<g>
			<g>
				<path style="fill:#8B8996;" d="M440,232h24c4.422,0,8-3.582,8-8s-3.578-8-8-8h-24c-4.422,0-8,3.582-8,8S435.578,232,440,232z"/>
			</g>
		</g>
		<g>
			<g>
				<path style="fill:#8B8996;" d="M272,232h136c4.422,0,8-3.582,8-8s-3.578-8-8-8H272c-4.422,0-8,3.582-8,8S267.578,232,272,232z"
					/>
			</g>
		</g>
		<g>
			<g>
				<path style="fill:#8B8996;" d="M272,264h192c4.422,0,8-3.582,8-8s-3.578-8-8-8H272c-4.422,0-8,3.582-8,8S267.578,264,272,264z"
					/>
			</g>
		</g>
		<g>
			<g>
				<path style="fill:#8B8996;" d="M272,296h24c4.422,0,8-3.582,8-8s-3.578-8-8-8h-24c-4.422,0-8,3.582-8,8S267.578,296,272,296z"/>
			</g>
		</g>
		<g>
			<g>
				<path style="fill:#8B8996;" d="M328,296h136c4.422,0,8-3.582,8-8s-3.578-8-8-8H328c-4.422,0-8,3.582-8,8S323.578,296,328,296z"
					/>
			</g>
		</g>
		<g>
			<g>
				<path style="fill:#8B8996;" d="M272,328h192c4.422,0,8-3.582,8-8s-3.578-8-8-8H272c-4.422,0-8,3.582-8,8S267.578,328,272,328z"
					/>
			</g>
		</g>
	</g>
	<g>
		<g>
			<path style="fill:#D8DCE1;" d="M248,104H40c-22.055,0-40,17.945-40,40v112c0,22.055,17.945,40,40,40h112v32
				c0,3.234,1.945,6.152,4.938,7.391c0.992,0.41,2.031,0.609,3.062,0.609c2.078,0,4.125-0.812,5.656-2.344L203.312,296H248
				c22.055,0,40-17.945,40-40V144C288,121.945,270.055,104,248,104z"/>
		</g>
		<g>
			<g>
				<path style="fill:#8B8996;" d="M72,160H48c-4.422,0-8-3.582-8-8s3.578-8,8-8h24c4.422,0,8,3.582,8,8S76.422,160,72,160z"/>
			</g>
		</g>
		<g>
			<g>
				<path style="fill:#8B8996;" d="M240,160H104c-4.422,0-8-3.582-8-8s3.578-8,8-8h136c4.422,0,8,3.582,8,8S244.422,160,240,160z"/>
			</g>
		</g>
		<g>
			<g>
				<path style="fill:#8B8996;" d="M240,192H48c-4.422,0-8-3.582-8-8s3.578-8,8-8h192c4.422,0,8,3.582,8,8S244.422,192,240,192z"/>
			</g>
		</g>
		<g>
			<g>
				<path style="fill:#8B8996;" d="M240,224h-24c-4.422,0-8-3.582-8-8s3.578-8,8-8h24c4.422,0,8,3.582,8,8S244.422,224,240,224z"/>
			</g>
		</g>
		<g>
			<g>
				<path style="fill:#8B8996;" d="M184,224H48c-4.422,0-8-3.582-8-8s3.578-8,8-8h136c4.422,0,8,3.582,8,8S188.422,224,184,224z"/>
			</g>
		</g>
		<g>
			<g>
				<path style="fill:#8B8996;" d="M240,256H48c-4.422,0-8-3.582-8-8s3.578-8,8-8h192c4.422,0,8,3.582,8,8S244.422,256,240,256z"/>
			</g>
		</g>
	</g>
</g>
<g>
</g>
<g>
</g>
<g>
</g>
<g>
</g>
<g>
</g>
<g>
</g>
<g>
</g>
<g>
</g>
<g>
</g>
<g>
</g>
<g>
</g>
<g>
</g>
<g>
</g>
<g>
</g>
<g>
</g>
</svg>
