<?xml version="1.0" encoding="iso-8859-1"?>
<!-- Generator: Adobe Illustrator 18.0.0, SVG Export Plug-In . SVG Version: 6.00 Build 0)  -->
<!DOCTYPE svg PUBLIC "-//W3C//DTD SVG 1.1//EN" "http://www.w3.org/Graphics/SVG/1.1/DTD/svg11.dtd">
<svg version="1.1" id="Capa_1" xmlns="http://www.w3.org/2000/svg" xmlns:xlink="http://www.w3.org/1999/xlink" x="0px" y="0px"
	 viewBox="0 0 453.53 453.53" style="enable-background:new 0 0 453.53 453.53;" xml:space="preserve">
<path style="fill:#E77200;" d="M453.53,363.855v27.49c0,14.54-11.79,26.33-26.33,26.33H26.33c-14.54,0-26.33-11.79-26.33-26.33
	v-27.49h27.77h131.87c0,13.4,10.86,24.26,24.25,24.26h85.75c13.4,0,24.26-10.86,24.26-24.26h131.86H453.53z"/>
<path style="fill:#7C6655;" d="M425.76,119.215v244.64H293.9H159.64H27.77v-157.02c8.37,8.95,18.34,16.38,29.47,21.83v105.72h128.94
	h38.39h106.47h65.24v-112.93v-92.88h-52.8h-38.39H203.08c-0.88-10.35-3.33-20.26-7.1-29.48h209.66
	C416.75,99.095,425.76,108.105,425.76,119.215z"/>
<polygon style="fill:#FCF4DE;" points="396.28,221.455 396.28,334.385 331.04,334.385 "/>
<polygon style="fill:#88C9B3;" points="396.28,128.575 396.28,221.455 331.04,334.385 224.57,334.385 343.48,128.575 "/>
<polygon style="fill:#FCF4DE;" points="343.48,128.575 224.57,334.385 186.18,334.385 305.09,128.575 "/>
<path style="fill:#88C9B3;" d="M305.09,128.575l-118.91,205.81H57.24v-105.72c13.47,6.62,28.63,10.33,44.66,10.33
	c15.64,0,30.45-3.54,43.68-9.85l41.26,37.57l-7.98-63.01c15.34-17.79,24.61-40.95,24.61-66.28c0-2.98-0.13-5.93-0.39-8.85H305.09z"
	/>
<path style="fill:#C65C05;" d="M159.64,363.855H293.9c0,13.4-10.86,24.26-24.26,24.26h-85.75
	C170.5,388.115,159.64,377.255,159.64,363.855z"/>
<path style="fill:#FCF4DE;" d="M57.244,128.577v205.81h339.04v-205.81H57.244z M384.284,322.387H69.244v-181.81h315.04V322.387z"/>
<path style="fill:#FCF4DE;" d="M57.24,228.665c-11.13-5.45-21.1-12.88-29.47-21.83c-17.02-18.16-27.43-42.56-27.43-69.41
	c0-56.09,45.47-101.57,101.56-101.57c42.54,0,78.96,26.15,94.08,63.24c3.77,9.22,6.22,19.13,7.1,29.48
	c0.26,2.92,0.39,5.87,0.39,8.85c0,25.33-9.27,48.49-24.61,66.28l7.98,63.01l-41.26-37.57c-13.23,6.31-28.04,9.85-43.68,9.85
	C85.87,238.995,70.71,235.285,57.24,228.665z M160.23,181.515v-15H43.58v15H160.23z M160.23,150.345v-15H43.58v15H160.23z
	 M160.23,119.175v-15H43.58v15H160.23z"/>
<rect x="43.58" y="166.515" style="fill:#7C6655;" width="116.65" height="15"/>
<rect x="43.58" y="135.345" style="fill:#7C6655;" width="116.65" height="15"/>
<rect x="43.58" y="104.175" style="fill:#7C6655;" width="116.65" height="15"/>
<g>
</g>
<g>
</g>
<g>
</g>
<g>
</g>
<g>
</g>
<g>
</g>
<g>
</g>
<g>
</g>
<g>
</g>
<g>
</g>
<g>
</g>
<g>
</g>
<g>
</g>
<g>
</g>
<g>
</g>
</svg>
